# xmcd CD database file
#
# Track frame offsets:
#	155
#	16117
#	36847
#	53042
#	69557
#	87817
#	113985
#	131562
#	149692
#
# Disc length: 2221 seconds
#
# Revision: 0
# Processed by: cddbd v1.4PL0 Copyright (c) Steve Scherf et al.
# Submitted via: CDex 1.50beta10
#
DISCID=7908ab09
DTITLE=Travis Haddix - What I Know Right Now
DYEAR=1992
DGENRE=Blues
TTITLE0=No, No, No
TTITLE1=Enough Is Enough
TTITLE2=Getting By With A Lie
TTITLE3=Jawbreaker
TTITLE4=Through With Love
TTITLE5=Strange
TTITLE6=What I Know Right Now
TTITLE7=A Big Difference
TTITLE8=Ugly Rumors
EXTD=YEAR: 1992
EXTT0=
EXTT1=
EXTT2=
EXTT3=
EXTT4=
EXTT5=
EXTT6=
EXTT7=
EXTT8=
PLAYORDER=
